# File created by Blade
# Date/Time:  Tue Jan 27 18:09:10 2015
# Frame Rate: 120.000 fps
#------------------------------------------------------
:FULLY-SPECIFIED
:DEGREES
2438
root -1.613001 31.842538 -6.519139 6.441506 7.456505 2.924885
Spine -6.516983 -12.076846 -4.313740
Head 0.670541 -51.817123 6.527605
LeftShoulder -12.403573 16.229671 3.080646
LeftArm 28.846446 43.674558 -64.190123
LeftForeArm -2.757244 -0.000000 15.909385
LeftHand -10.927436 -0.000000 -5.625306
LeftHandThumb1 -26.253704 0.000000 33.147579
RightShoulder -6.781903 16.314584 -31.965131
RightArm 10.690338 74.709844 47.285493
RightForeArm 39.237502 -0.000000 103.111427
RightHand -6.792252 -0.000000 2.420983
RightHandThumb1 -24.326973 -0.000000 -32.862282
LeftUpLeg -2.356537 -1.130969 -0.304450
LeftLeg 1.429079 -0.000000 -0.000000
LeftFoot -18.276106 16.264088 -25.010730
LeftToeBase 8.712592 -0.000000 -0.000000
RightUpLeg 0.640521 -4.451861 -2.958943
RightLeg -3.212275 -0.000000 0.000000
RightFoot -15.363909 -13.875162 9.758894
RightToeBase 5.165315 -0.000000 -0.000000
2439
root -1.613995 31.842572 -6.517550 6.440528 7.446918 2.915965
Spine -6.530575 -12.047227 -4.334734
Head 0.819699 -51.918401 6.474333
LeftShoulder -12.423508 16.231537 3.064713
LeftArm 28.838203 43.634931 -64.190116
LeftForeArm -2.782738 0.000000 15.898166
LeftHand -10.935274 -0.000000 -5.650674
LeftHandThumb1 -26.253704 0.000000 33.147579
RightShoulder -6.783790 16.391298 -31.978565
RightArm 11.326624 74.868340 47.948024
RightForeArm 39.007387 0.000000 103.972799
RightHand -6.792318 -0.000000 2.191672
RightHandThumb1 -24.326973 -0.000000 -32.862282
LeftUpLeg -2.357318 -1.083913 -0.299288
LeftLeg 1.437191 -0.000000 -0.000000
LeftFoot -18.280783 16.245618 -25.009638
LeftToeBase 8.729621 -0.000000 -0.000000
RightUpLeg 0.637611 -4.463482 -2.947674
RightLeg -3.206934 -0.000000 0.000000
RightFoot -15.365072 -13.854657 9.768886
RightToeBase 5.172842 -0.000000 -0.000000
2440
root -1.613575 31.842308 -6.516377 6.439971 7.447932 2.910087
Spine -6.541415 -12.027767 -4.356278
Head 0.943264 -51.999183 6.447308
LeftShoulder -12.437742 16.255058 3.046465
LeftArm 28.856408 43.579512 -64.170530
LeftForeArm -2.801699 -0.000000 15.899718
LeftHand -10.935008 -0.000000 -5.591741
LeftHandThumb1 -26.253704 0.000000 33.147579
RightShoulder -6.775466 16.491079 -32.002667
RightArm 11.777197 75.008109 48.453498
RightForeArm 38.875434 -0.000000 104.717237
RightHand -6.607589 -0.000000 2.341631
RightHandThumb1 -24.326973 -0.000000 -32.862282
LeftUpLeg -2.352964 -1.100783 -0.292971
LeftLeg 1.431719 -0.000000 -0.000000
LeftFoot -18.283143 16.258338 -25.000651
LeftToeBase 8.732305 -0.000000 -0.000000
RightUpLeg 0.636747 -4.475214 -2.942478
RightLeg -3.200235 -0.000000 0.000000
RightFoot -15.364621 -13.840195 9.764116
RightToeBase 5.048012 -0.000000 -0.000000
2441
root -1.612629 31.842431 -6.515400 6.439462 7.448206 2.905980
Spine -6.555474 -12.004804 -4.378426
Head 1.085846 -52.071390 6.381815
LeftShoulder -12.461273 16.269054 3.022363
LeftArm 28.860472 43.507617 -64.152493
LeftForeArm -2.721213 -0.000000 15.922541
LeftHand -10.969203 -0.000000 -5.558043
LeftHandThumb1 -26.253704 0.000000 33.147579
RightShoulder -6.770370 16.595883 -32.006026
RightArm 12.239579 75.105720 48.926431
RightForeArm 39.009101 -0.000000 105.358648
RightHand -6.801229 0.000000 1.795220
RightHandThumb1 -24.326973 -0.000000 -32.862282
LeftUpLeg -2.349361 -1.114519 -0.288540
LeftLeg 1.428378 -0.000000 -0.000000
LeftFoot -18.286787 16.266566 -24.988956
LeftToeBase 8.734960 -0.000000 -0.000000
RightUpLeg 0.635881 -4.466088 -2.940388
RightLeg -3.191395 -0.000000 0.000000
RightFoot -15.369903 -13.839512 9.776463
RightToeBase 5.132733 -0.000000 -0.000000
2442
root -1.612574 31.842098 -6.514315 6.440696 7.455122 2.897819
Spine -6.570993 -11.976579 -4.400732
Head 1.216443 -52.166270 6.336548
LeftShoulder -12.456335 16.264110 3.025206
LeftArm 28.849560 43.463219 -64.144189
LeftForeArm -2.714700 -0.000000 15.943755
LeftHand -10.952582 -0.000000 -5.495922
LeftHandThumb1 -26.253704 0.000000 33.147579
RightShoulder -6.762443 16.662192 -32.019114
RightArm 12.647485 75.192412 49.372714
RightForeArm 38.955358 -0.000000 105.927825
RightHand -6.796430 -0.000000 1.591465
RightHandThumb1 -24.326973 -0.000000 -32.862282
LeftUpLeg -2.349874 -1.106721 -0.280324
LeftLeg 1.428998 -0.000000 -0.000000
LeftFoot -18.285364 16.259955 -24.974830
LeftToeBase 8.717298 -0.000000 -0.000000
RightUpLeg 0.633170 -4.478445 -2.931276
RightLeg -3.184172 -0.000000 0.000000
RightFoot -15.378492 -13.837085 9.775410
RightToeBase 5.189592 -0.000000 -0.000000
2443
root -1.612368 31.842223 -6.513031 6.439731 7.460090 2.890706
Spine -6.583492 -11.948657 -4.424158
Head 1.353379 -52.228714 6.275518
LeftShoulder -12.449015 16.244812 3.029087
LeftArm 28.842613 43.437716 -64.121755
LeftForeArm -2.732375 -0.000000 15.956838
LeftHand -10.951286 -0.000000 -5.445348
LeftHandThumb1 -26.253704 0.000000 33.147579
RightShoulder -6.753733 16.743307 -32.021424
RightArm 12.992875 75.230683 49.743885
RightForeArm 38.954261 0.000000 106.386907
RightHand -6.623102 -0.000000 1.547696
RightHandThumb1 -24.326973 -0.000000 -32.862282
LeftUpLeg -2.345841 -1.113581 -0.273460
LeftLeg 1.422665 -0.000000 -0.000000
LeftFoot -18.294552 16.259511 -24.994629
LeftToeBase 8.726432 -0.000000 -0.000000
RightUpLeg 0.631463 -4.474148 -2.924351
RightLeg -3.174303 -0.000000 0.000000
RightFoot -15.383383 -13.842034 9.774919
RightToeBase 5.090078 -0.000000 -0.000000
2444
root -1.615301 31.841943 -6.515337 6.447520 7.485183 2.878917
Spine -6.588248 -11.939468 -4.455756
Head 1.432146 -52.269305 6.276824
LeftShoulder -12.440152 16.222496 3.055495
LeftArm 28.854683 43.401402 -64.083693
LeftForeArm -2.664581 -0.000000 15.970535
LeftHand -10.889355 -0.000000 -5.446039
LeftHandThumb1 -26.253704 0.000000 33.147579
RightShoulder -6.744203 16.786810 -32.003439
RightArm 13.414385 75.284526 50.190613
RightForeArm 38.934154 -0.000000 106.800366
RightHand -6.689516 -0.000000 1.486239
RightHandThumb1 -24.326973 -0.000000 -32.862282
LeftUpLeg -2.373745 -1.126623 -0.253584
LeftLeg 1.448749 -0.000000 -0.000000
LeftFoot -18.297510 16.251252 -24.966674
LeftToeBase 8.710394 -0.000000 -0.000000
RightUpLeg 0.614112 -4.474764 -2.902816
RightLeg -3.159893 -0.000000 0.000000
RightFoot -15.387134 -13.882131 9.769884
RightToeBase 5.086341 -0.000000 -0.000000
2445
root -1.614004 31.841864 -6.514683 6.448242 7.495533 2.874174
Spine -6.602394 -11.903698 -4.482092
Head 1.526418 -52.310311 6.244368
LeftShoulder -12.412081 16.221198 3.075662
LeftArm 28.887195 43.371087 -64.033673
LeftForeArm -2.564384 0.000000 15.977912
LeftHand -10.892505 -0.000000 -5.505900
LeftHandThumb1 -26.253704 0.000000 33.147579
RightShoulder -6.728819 16.822526 -32.008078
RightArm 13.686773 75.304626 50.501501
RightForeArm 38.930008 0.000000 107.120833
RightHand -6.698889 -0.000000 1.426404
RightHandThumb1 -24.326973 -0.000000 -32.862282
LeftUpLeg -2.370990 -1.150439 -0.248966
LeftLeg 1.441190 -0.000000 -0.000000
LeftFoot -18.303095 16.261656 -24.979555
LeftToeBase 8.698874 -0.000000 -0.000000
RightUpLeg 0.613268 -4.465519 -2.898512
RightLeg -3.155335 -0.000000 0.000000
RightFoot -15.386516 -13.895938 9.779561
RightToeBase 5.106065 -0.000000 -0.000000
2446
root -1.611753 31.841612 -6.513580 6.447450 7.512367 2.873219
Spine -6.606219 -11.871402 -4.508128
Head 1.599654 -52.330806 6.219464
LeftShoulder -12.393157 16.192402 3.093949
LeftArm 28.926882 43.394331 -63.954456
LeftForeArm -2.499230 0.000000 15.995797
LeftHand -10.918245 -0.000000 -5.557461
LeftHandThumb1 -26.253704 0.000000 33.147579
RightShoulder -6.749412 16.837912 -32.022172
RightArm 14.084032 75.284185 50.940971
RightForeArm 38.985129 0.000000 107.385811
RightHand -6.838997 -0.000000 1.257037
RightHandThumb1 -24.326973 -0.000000 -32.862282
LeftUpLeg -2.367974 -1.171857 -0.247902
LeftLeg 1.439486 -0.000000 -0.000000
LeftFoot -18.312991 16.244086 -25.004209
LeftToeBase 8.743461 -0.000000 -0.000000
RightUpLeg 0.616432 -4.463026 -2.900670
RightLeg -3.148913 -0.000000 0.000000
RightFoot -15.400606 -13.920062 9.788069
RightToeBase 5.170873 -0.000000 -0.000000
2447
root -1.609066 31.841779 -6.511654 6.440177 7.530952 2.871804
Spine -6.615043 -11.850270 -4.526901
Head 1.683646 -52.329508 6.162108
LeftShoulder -12.365194 16.184968 3.106015
LeftArm 28.966146 43.412612 -63.871780
LeftForeArm -2.545138 -0.000000 16.023505
LeftHand -10.941790 -0.000000 -5.489308
LeftHandThumb1 -26.253704 0.000000 33.147579
RightShoulder -6.735989 16.838127 -32.017784
RightArm 14.421638 75.232661 51.288730
RightForeArm 39.031820 -0.000000 107.546299
RightHand -6.536301 -0.000000 1.429927
RightHandThumb1 -24.326973 -0.000000 -32.862282
LeftUpLeg -2.355165 -1.193708 -0.249747
LeftLeg 1.432104 -0.000000 -0.000000
LeftFoot -18.305941 16.258920 -24.984969
LeftToeBase 8.724268 -0.000000 -0.000000
RightUpLeg 0.624553 -4.475103 -2.901772
RightLeg -3.134825 -0.000000 0.000000
RightFoot -15.419906 -13.923367 9.797334
RightToeBase 5.229303 -0.000000 -0.000000
2448
root -1.607047 31.841868 -6.510034 6.434793 7.551149 2.867423
Spine -6.619049 -11.838170 -4.543772
Head 1.737792 -52.302027 6.138043
LeftShoulder -12.340772 16.177846 3.120678
LeftArm 29.013728 43.434748 -63.775006
LeftForeArm -2.526900 0.000000 16.058757
LeftHand -10.948536 -0.000000 -5.458740
LeftHandThumb1 -26.253704 0.000000 33.147579
RightShoulder -6.726549 16.876507 -32.017393
RightArm 14.638908 75.141605 51.529902
RightForeArm 39.111885 0.000000 107.684385
RightHand -6.489040 -0.000000 1.440869
RightHandThumb1 -24.326973 -0.000000 -32.862282
LeftUpLeg -2.348606 -1.209691 -0.246628
LeftLeg 1.430691 -0.000000 -0.000000
LeftFoot -18.305428 16.253954 -24.986638
LeftToeBase 8.750677 -0.000000 -0.000000
RightUpLeg 0.635426 -4.450665 -2.899964
RightLeg -3.131316 -0.000000 0.000000
RightFoot -15.422144 -13.956817 9.816070
RightToeBase 5.180951 -0.000000 -0.000000
